<?xml version="1.0" encoding="UTF-8" standalone="no"?>
<!-- Created with Inkscape (http://www.inkscape.org/) -->
<!-- Downloaded from  https://commons.wikimedia.org/wiki/File:Lockheed_YF-22_Lightning_II_3-view.svg -->

<svg
   version="1.1"
   width="345.82593"
   height="502.57751"
   id="svg2"
   style="display:inline"
   sodipodi:docname="F22-Lightning-2.svg"
   inkscape:version="1.2.2 (b0a8486541, 2022-12-01)"
   xmlns:inkscape="http://www.inkscape.org/namespaces/inkscape"
   xmlns:sodipodi="http://sodipodi.sourceforge.net/DTD/sodipodi-0.dtd"
   xmlns:xlink="http://www.w3.org/1999/xlink"
   xmlns="http://www.w3.org/2000/svg"
   xmlns:svg="http://www.w3.org/2000/svg"
   xmlns:rdf="http://www.w3.org/1999/02/22-rdf-syntax-ns#"
   xmlns:cc="http://creativecommons.org/ns#"
   xmlns:dc="http://purl.org/dc/elements/1.1/">
  <sodipodi:namedview
     id="namedview235"
     pagecolor="#ffffff"
     bordercolor="#000000"
     borderopacity="0.25"
     inkscape:showpageshadow="2"
     inkscape:pageopacity="0.0"
     inkscape:pagecheckerboard="0"
     inkscape:deskcolor="#d1d1d1"
     showgrid="false"
     inkscape:zoom="1.5936986"
     inkscape:cx="307.4609"
     inkscape:cy="298.6763"
     inkscape:window-width="1920"
     inkscape:window-height="1011"
     inkscape:window-x="0"
     inkscape:window-y="0"
     inkscape:window-maximized="1"
     inkscape:current-layer="g683" />
  <defs
     id="defs4">
    <linearGradient
       id="linearGradient4019">
      <stop
         id="stop4021"
         style="stop-color:#000000;stop-opacity:1"
         offset="0" />
      <stop
         id="stop4023"
         style="stop-color:#000000;stop-opacity:0"
         offset="1" />
    </linearGradient>
    <linearGradient
       id="linearGradient3871">
      <stop
         id="stop3873"
         style="stop-color:#000000;stop-opacity:1"
         offset="0" />
      <stop
         id="stop3875"
         style="stop-color:#000000;stop-opacity:0"
         offset="1" />
    </linearGradient>
    <radialGradient
       cx="417.7731"
       cy="103.23997"
       r="31.464739"
       fx="417.7731"
       fy="103.23997"
       id="radialGradient3879"
       xlink:href="#linearGradient3871"
       gradientUnits="userSpaceOnUse"
       gradientTransform="matrix(4.5827686,-2.6163433,0.81127405,1.421022,-1577.6831,1052.9236)" />
    <radialGradient
       cx="324.21878"
       cy="386.0575"
       r="33.709469"
       fx="324.21878"
       fy="386.0575"
       id="radialGradient4027"
       xlink:href="#linearGradient4019"
       gradientUnits="userSpaceOnUse"
       gradientTransform="matrix(4.7688049,-0.49142772,0.10819296,1.0499022,-1260.8289,143.41704)" />
  </defs>
  <metadata
     id="metadata7">
    <rdf:RDF>
      <cc:Work
         rdf:about="">
        <dc:format>image/svg+xml</dc:format>
        <dc:type
           rdf:resource="http://purl.org/dc/dcmitype/StillImage" />
      </cc:Work>
    </rdf:RDF>
  </metadata>
  <g
     id="g683"
     transform="translate(-85.45162,78.151854)">
    <g
       id="g782"
       transform="rotate(-60.560694,287.1523,215.6474)">
      <path
         d="M 283.17447,120.56553 209.1808,162.99194"
         id="path2997"
         style="fill:none;stroke:#000000;stroke-width:1px;stroke-linecap:butt;stroke-linejoin:miter;stroke-opacity:1" />
      <path
         d="m 272.82041,126.12137 0.25254,-14.14213 18.68782,-12.626907 21.2132,5.050757"
         id="path2999"
         style="fill:none;stroke:#000000;stroke-width:1px;stroke-linecap:butt;stroke-linejoin:miter;stroke-opacity:1" />
      <path
         d="m 282.41686,105.41324 21.2132,5.55584 9.09137,-6.31345 65.40738,-29.799496 39.64849,8.586297"
         id="path3001"
         style="fill:none;stroke:#000000;stroke-width:1px;stroke-linecap:butt;stroke-linejoin:miter;stroke-opacity:1" />
      <path
         d="M 291.76077,99.352333 140.23789,67.532528 107.15539,86.725426 135.6922,182.18484"
         id="path3003"
         style="fill:none;stroke:#000000;stroke-width:1px;stroke-linecap:butt;stroke-linejoin:miter;stroke-opacity:1" />
      <path
         d="M 125.59067,75.866287 277.36609,108.94878"
         id="path3005"
         style="fill:none;stroke:#000000;stroke-width:1px;stroke-linecap:butt;stroke-linejoin:miter;stroke-opacity:1" />
      <path
         d="m 273.07295,111.97924 -136.11806,-30.052038 -3.283,3.535534 -16.16244,-4.798225"
         id="path3007"
         style="fill:none;stroke:#000000;stroke-width:1px;stroke-linecap:butt;stroke-linejoin:miter;stroke-opacity:1" />
      <path
         d="m 112.71123,105.16071 6.06091,-3.78807 28.78935,25.25381 9.34391,33.08249"
         id="path3009"
         style="fill:none;stroke:#000000;stroke-width:1px;stroke-linecap:butt;stroke-linejoin:miter;stroke-opacity:1" />
      <path
         d="m 152.10718,162.23433 -9.09137,-33.0825 -27.65867,-25.84829"
         id="path3011"
         style="fill:none;stroke:#000000;stroke-width:1px;stroke-linecap:butt;stroke-linejoin:miter;stroke-opacity:1" />
      <path
         d="m 123.125,139.82139 19.89081,-10.66956 4.54568,-2.52538"
         id="path3013"
         style="fill:none;stroke:#000000;stroke-width:1px;stroke-linecap:butt;stroke-linejoin:miter;stroke-opacity:1" />
      <path
         d="m 66.496753,246.58206 -19.697974,-66.9226 19.192898,-9.34391 68.690373,16.92005"
         id="path3015"
         style="fill:none;stroke:#000000;stroke-width:1px;stroke-linecap:butt;stroke-linejoin:miter;stroke-opacity:1" />
      <path
         d="M 66.496753,246.58206 C 86.702252,231.52618 107.17857,217.8244 129.37875,212.74195"
         id="path3017"
         style="fill:none;stroke:#000000;stroke-width:1px;stroke-linecap:butt;stroke-linejoin:miter;stroke-opacity:1" />
      <path
         d="m 62.96122,235.21785 69.70052,-36.87057"
         id="path3019"
         style="fill:none;stroke:#000000;stroke-width:1px;stroke-linecap:butt;stroke-linejoin:miter;stroke-opacity:1" />
      <path
         d="M 54.122385,175.87138 75.08305,240.26861"
         id="path3021"
         style="fill:none;stroke:#000000;stroke-width:1px;stroke-linecap:butt;stroke-linejoin:miter;stroke-opacity:1" />
      <path
         d="M 66.496753,246.58206 129.37875,212.74195"
         id="path3023"
         style="fill:none;stroke:#000000;stroke-width:1px;stroke-linecap:butt;stroke-linejoin:miter;stroke-opacity:1" />
      <path
         d="m 115.23661,240.01607 c 7.32948,-4.83218 62.43429,-27.57083 119.198,-72.73098"
         id="path3025"
         style="fill:none;stroke:#000000;stroke-width:1px;stroke-linecap:butt;stroke-linejoin:miter;stroke-opacity:1" />
      <path
         d="m 169.53231,215.26733 -47.72971,26.01143 -31.8198,-7.57614 38.63833,-15.65737"
         id="path3027"
         style="fill:none;stroke:#000000;stroke-width:1px;stroke-linecap:butt;stroke-linejoin:miter;stroke-opacity:1" />
      <path
         d="m 125.33814,234.20769 13.38452,-64.9023 26.5165,-15.15229 69.19545,13.13199"
         id="path3029"
         style="fill:none;stroke:#000000;stroke-width:1px;stroke-linecap:butt;stroke-linejoin:miter;stroke-opacity:1" />
      <path
         d="m 156.9054,159.70894 68.43784,14.14214"
         id="path3031"
         style="fill:none;stroke:#000000;stroke-width:1px;stroke-linecap:butt;stroke-linejoin:miter;stroke-opacity:1" />
      <path
         d="m 527.63139,44.55156 c -43.33398,-3.263342 -99.28117,31.943587 -155.81603,68.9429"
         id="path3033"
         style="display:inline;fill:none;stroke:#000000;stroke-width:1px;stroke-linecap:butt;stroke-linejoin:miter;stroke-opacity:1" />
      <path
         d="M 388.23034,145.81935 C 448.44587,120.03756 500.8604,89.731185 527.63139,44.55156"
         id="path3035"
         style="display:inline;fill:none;stroke:#000000;stroke-width:1px;stroke-linecap:butt;stroke-linejoin:miter;stroke-opacity:1" />
      <path
         d="M 479.3966,72.835831 527.63139,44.55156"
         id="path3037"
         style="display:inline;fill:none;stroke:#000000;stroke-width:1px;stroke-linecap:butt;stroke-linejoin:miter;stroke-opacity:1" />
      <path
         d="m 471.82046,62.481767 c 16.69791,-6.9296 25.70743,-17.7034 55.81093,-17.930207"
         id="path3039"
         style="display:inline;fill:none;stroke:#000000;stroke-width:1px;stroke-linecap:butt;stroke-linejoin:miter;stroke-opacity:1" />
      <path
         d="m 485.45752,84.200047 c 15.60151,-7.968084 29.93481,-20.24806 42.17387,-39.648487"
         id="path3041"
         style="display:inline;fill:none;stroke:#000000;stroke-width:1px;stroke-linecap:butt;stroke-linejoin:miter;stroke-opacity:1" />
      <path
         d="m 384.44226,75.866289 -25.50635,13.637059 35.86042,9.343911"
         id="path3043"
         style="display:inline;fill:none;stroke:#000000;stroke-width:1px;stroke-linecap:butt;stroke-linejoin:miter;stroke-opacity:1" />
      <path
         d="m 366.00698,85.462738 34.09265,9.091373"
         id="path3045"
         style="display:inline;fill:none;stroke:#000000;stroke-width:1px;stroke-linecap:butt;stroke-linejoin:miter;stroke-opacity:1" />
      <path
         d="m 367.77475,79.654361 40.15356,10.85914"
         id="path3047"
         style="display:inline;fill:none;stroke:#000000;stroke-width:1px;stroke-linecap:butt;stroke-linejoin:miter;stroke-opacity:1" />
      <path
         d="M 437.72781,121.82822 426.3636,159.96148"
         id="path3010"
         style="fill:none;stroke:#000000;stroke-width:1px;stroke-linecap:butt;stroke-linejoin:miter;stroke-opacity:1" />
      <path
         d="m 412.97908,134.20259 -8.5863,35.60788 23.15186,-13.73908"
         id="path3012"
         style="fill:none;stroke:#000000;stroke-width:1px;stroke-linecap:butt;stroke-linejoin:miter;stroke-opacity:1" />
      <path
         d="m 420.93403,130.66706 -9.21765,34.72399"
         id="path3014"
         style="fill:none;stroke:#000000;stroke-width:1px;stroke-linecap:butt;stroke-linejoin:miter;stroke-opacity:1" />
      <path
         d="m 415.88326,150.23876 -7.19733,2.77792"
         id="path3016"
         style="fill:none;stroke:#000000;stroke-width:1px;stroke-linecap:butt;stroke-linejoin:miter;stroke-opacity:1" />
      <path
         d="m 425.98479,128.39421 -8.20749,33.33504"
         id="path3018"
         style="fill:none;stroke:#000000;stroke-width:1px;stroke-linecap:butt;stroke-linejoin:miter;stroke-opacity:1" />
      <path
         d="m 411.65325,139.44275 -3.97748,1.83091 -0.69448,5.3033 3.53554,-1.01016"
         id="path3020"
         style="fill:#000000;fill-opacity:1;stroke:#000000;stroke-width:1px;stroke-linecap:butt;stroke-linejoin:miter;stroke-opacity:1" />
      <path
         d="m 409.63295,148.72353 -3.66181,1.4521 -1.13642,5.6821 3.53553,-1.26269"
         id="path3022"
         style="fill:#000000;fill-opacity:1;stroke:#000000;stroke-width:1px;stroke-linecap:butt;stroke-linejoin:miter;stroke-opacity:1" />
      <path
         d="m 484.73214,92.142825 -3.39285,-1.696429 0.26785,-5 -3.125,0.08929 0.0893,-5.892857 -3.30357,0.357142 0.0893,-5.803571 -4.46428,-0.267857 0.26785,-6.964286 h -3.66071 l 0.17857,-4.821428 -6.78571,-1.428572"
         id="path3792"
         style="fill:none;stroke:#000000;stroke-width:1px;stroke-linecap:butt;stroke-linejoin:miter;stroke-opacity:1" />
      <path
         d="m 446.25,84.553539 -5.98214,-0.803571 C 418.21136,91.08125 399.72975,102.06868 388.125,120.08925"
         id="path3794"
         style="fill:none;stroke:#000000;stroke-width:1px;stroke-linecap:butt;stroke-linejoin:miter;stroke-opacity:1" />
      <path
         d="m 388.125,120.08925 4.01786,-0.17857 -0.80357,4.73214 3.57142,-0.0893 -0.35714,4.91072 c 24.04147,-2.35319 56.4289,-25.03133 57.05357,-27.94643 l 1.07143,-4.999995 -4.55357,-1.517857 0.98214,-4.642858 -4.01785,-0.08928 1.16071,-5.714281"
         id="path3796"
         style="fill:none;stroke:#000000;stroke-width:1px;stroke-linecap:butt;stroke-linejoin:miter;stroke-opacity:1" />
      <path
         d="m 454.64286,79.374965 -4.19643,0.08929 -3.125,-3.660714 -4.19643,4.196428 C 412.77607,91.026737 383.55084,112.62072 376.16071,123.4821 l 5.625,2.76786 -3.125,5.44643 5.98215,-0.0893 v 4.55358 L 396.25,135.89281 c 38.39587,-15.15568 56.94609,-32.59853 61.07143,-35.08928 l 6.16071,-1.42857 -2.58928,-4.464286 0.98214,-4.642857 -5.26786,-0.357143 1.07143,-5.982143 -4.10714,-0.267857 z"
         id="path3867"
         style="fill:none;stroke:#000000;stroke-width:1px;stroke-linecap:butt;stroke-linejoin:miter;stroke-opacity:1" />
      <path
         d="m 395.09663,128.46457 c 0.0483,-0.43309 0.31841,-4.05157 0.31841,-4.26616 0,-0.0599 -0.60692,-0.0919 -1.74107,-0.0919 -1.33551,0 -1.74012,-0.026 -1.73698,-0.11161 0.002,-0.0614 0.17866,-1.11607 0.39202,-2.34375 0.21336,-1.22768 0.38228,-2.23562 0.37538,-2.23988 -0.007,-0.004 -0.73578,0.0271 -1.61971,0.0696 -0.88392,0.0425 -1.70058,0.0661 -1.81479,0.0524 -0.19381,-0.0233 -0.1619,-0.0904 0.47849,-1.00709 2.71438,-3.88537 5.01255,-6.6273 8.38683,-10.00627 3.65055,-3.65561 6.34863,-5.93133 10.58502,-8.92806 8.19062,-5.793861 18.36881,-10.81337 30.05464,-14.821847 l 1.52947,-0.524639 2.62231,0.342995 c 1.44228,0.188646 2.64981,0.368349 2.68341,0.399339 0.0336,0.03099 -0.19809,1.317958 -0.51487,2.85993 -0.31677,1.541972 -0.55957,2.819966 -0.53955,2.839988 0.02,0.02002 0.90461,0.06044 1.96576,0.08981 1.88293,0.05213 1.92928,0.05791 1.92638,0.240369 -0.002,0.102827 -0.19969,1.110563 -0.44011,2.239415 -0.24041,1.128851 -0.42992,2.057505 -0.42112,2.063677 0.009,0.0062 1.02046,0.343643 2.24813,0.749937 1.22768,0.406295 2.24344,0.747865 2.25725,0.759046 0.0667,0.05403 -0.98364,4.66154 -1.10485,4.84654 -0.60827,0.92833 -3.58649,3.40593 -6.91132,5.74957 -9.5256,6.71448 -21.71266,13.24539 -31.83036,17.05753 -5.54846,2.09055 -11.90494,3.80429 -15.80357,4.26073 -0.44197,0.0517 -0.93735,0.11667 -1.10085,0.14428 l -0.29727,0.0502 0.0529,-0.47413 v 0 z"
         id="path3869"
         style="fill:url(#radialGradient3879);fill-opacity:1;stroke:none" />
      <path
         d="m 426.3636,159.96148 -60.60916,43.05775 -57.32615,165.53875 -31.56727,17.42513 -69.44799,-76.77159"
         id="path3881"
         style="fill:none;stroke:#000000;stroke-width:1px;stroke-linecap:butt;stroke-linejoin:miter;stroke-opacity:1" />
      <path
         d="m 265.118,373.10367 6.06091,-3.53554 -8.33376,-39.90102 -24.875,-25.50635"
         id="path3883"
         style="fill:none;stroke:#000000;stroke-width:1px;stroke-linecap:butt;stroke-linejoin:miter;stroke-opacity:1" />
      <path
         d="M 267.89592,371.3359 259.05708,332.06622 234.0558,306.18106"
         id="path3885"
         style="fill:none;stroke:#000000;stroke-width:1px;stroke-linecap:butt;stroke-linejoin:miter;stroke-opacity:1" />
      <path
         d="m 238.9803,343.93551 20.07678,-11.86929 3.78807,-2.39911"
         id="path3887"
         style="fill:none;stroke:#000000;stroke-width:1px;stroke-linecap:butt;stroke-linejoin:miter;stroke-opacity:1" />
      <path
         d="M 173.57143,298.03568 115,334.10711 l 47.5,50.53571 17.85714,-10.17857 22.32143,-66.78572"
         id="path3889"
         style="fill:none;stroke:#000000;stroke-width:1px;stroke-linecap:butt;stroke-linejoin:miter;stroke-opacity:1" />
      <path
         d="m 124.46428,327.85711 46.96429,51.78571"
         id="path3891"
         style="fill:none;stroke:#000000;stroke-width:1px;stroke-linecap:butt;stroke-linejoin:miter;stroke-opacity:1" />
      <path
         d="m 123.21428,342.85711 70.35715,-38.03572"
         id="path3893"
         style="fill:none;stroke:#000000;stroke-width:1px;stroke-linecap:butt;stroke-linejoin:miter;stroke-opacity:1" />
      <path
         d="m 272.32143,233.74996 -25,65.53572 L 220,314.46425 155.89286,291.78568"
         id="path3895"
         style="fill:none;stroke:#000000;stroke-width:1px;stroke-linecap:butt;stroke-linejoin:miter;stroke-opacity:1" />
      <path
         d="m 141.25,317.67853 7.14286,-21.42857 7.5,-4.46428 C 250.50461,236.822 258.64954,241.442 272.32143,233.74996"
         id="path3897"
         style="fill:none;stroke:#000000;stroke-width:1px;stroke-linecap:butt;stroke-linejoin:miter;stroke-opacity:1" />
      <path
         d="m 260.35714,238.57139 -22.38699,65.58937 -51.18444,-19.69651"
         id="path3899"
         style="fill:none;stroke:#000000;stroke-width:1px;stroke-linecap:butt;stroke-linejoin:miter;stroke-opacity:1" />
      <path
         d="m 170.89286,293.57139 c 19.52381,-15.94254 39.04761,-28.28517 58.57142,-31.42857 l -4.10714,-8.57143"
         id="path3901"
         style="fill:none;stroke:#000000;stroke-width:1px;stroke-linecap:butt;stroke-linejoin:miter;stroke-opacity:1" />
      <path
         d="m 166.34717,296.09677 63.11711,-33.95395"
         id="path3903"
         style="fill:none;stroke:#000000;stroke-width:1px;stroke-linecap:butt;stroke-linejoin:miter;stroke-opacity:1" />
      <path
         d="m 161.60714,293.92853 18.75,-11.96428 3.69611,1.42524"
         id="path3905"
         style="fill:none;stroke:#000000;stroke-width:1px;stroke-linecap:butt;stroke-linejoin:miter;stroke-opacity:1" />
      <path
         d="m 177.67857,299.19639 c -20.17714,17.72438 -37.79846,26.88674 -53.21429,28.66072"
         id="path3907"
         style="fill:none;stroke:#000000;stroke-width:1px;stroke-linecap:butt;stroke-linejoin:miter;stroke-opacity:1" />
      <path
         d="m 124.46428,327.85711 c 11.09812,-4.8598 28.31077,-14.04194 53.21429,-28.66072"
         id="path3909"
         style="fill:none;stroke:#000000;stroke-width:1px;stroke-linecap:butt;stroke-linejoin:miter;stroke-opacity:1" />
      <path
         d="m 138.75,246.24996 20.17571,-10.02196 0.25254,-4.9245 -4.16688,-1.51523 0.88388,-5.17703 -2.77792,-0.37881"
         id="path3979"
         style="fill:none;stroke:#000000;stroke-width:1px;stroke-linecap:butt;stroke-linejoin:miter;stroke-opacity:1" />
      <path
         d="m 146.67761,228.02051 v 3.91434 l 3.78807,-0.12627 -0.75761,5.42957 4.41941,0.88388 -1.13642,5.05077 3.91434,0.88388 -2.97683,5.94328 9.73223,-0.63998"
         id="path3981"
         style="fill:none;stroke:#000000;stroke-width:1px;stroke-linecap:butt;stroke-linejoin:miter;stroke-opacity:1" />
      <path
         d="m 158.92571,236.228 4.16688,1.45209 -0.56821,4.60882 -5.61898,1.76777"
         id="path3983"
         style="fill:none;stroke:#000000;stroke-width:1px;stroke-linecap:butt;stroke-linejoin:miter;stroke-opacity:1" />
      <path
         d="m 162.52438,242.28891 3.09359,0.44194 -0.37881,5.87151"
         id="path3985"
         style="fill:none;stroke:#000000;stroke-width:1px;stroke-linecap:butt;stroke-linejoin:miter;stroke-opacity:1" />
      <path
         d="m 150.46568,231.80858 4.54569,-2.02031"
         id="path3987"
         style="fill:none;stroke:#000000;stroke-width:1px;stroke-linecap:butt;stroke-linejoin:miter;stroke-opacity:1" />
      <path
         d="m 261.96127,259.20897 80.8122,-45.20433"
         id="path3911"
         style="fill:none;stroke:#000000;stroke-width:1px;stroke-linecap:butt;stroke-linejoin:miter;stroke-opacity:1" />
      <path
         d="m 365.75444,203.01923 -10.35406,2.90419 -6.81853,21.2132"
         id="path3913"
         style="fill:none;stroke:#000000;stroke-width:1px;stroke-linecap:butt;stroke-linejoin:miter;stroke-opacity:1" />
      <path
         d="m 359.69353,221.58078 -20.20305,9.59645 -14.39468,-7.82868"
         id="path3915"
         style="fill:none;stroke:#000000;stroke-width:1px;stroke-linecap:butt;stroke-linejoin:miter;stroke-opacity:1" />
      <path
         d="m 339.49048,231.17723 -44.44672,133.0876 -5.55583,2.77792 -3.283,13.63706"
         id="path3917"
         style="fill:none;stroke:#000000;stroke-width:1px;stroke-linecap:butt;stroke-linejoin:miter;stroke-opacity:1" />
      <path
         d="M 296.30646,375.12397 344.24107,228.92853"
         id="path3919"
         style="fill:none;stroke:#000000;stroke-width:1px;stroke-linecap:butt;stroke-linejoin:miter;stroke-opacity:1" />
      <path
         d="m 301.73603,127.6366 -3.283,7.82868 -25.50635,14.01587 -9.21764,-0.25254 3.03045,-7.57615 28.28428,-15.15228 z"
         id="path3921"
         style="fill:none;stroke:#000000;stroke-width:1px;stroke-linecap:butt;stroke-linejoin:miter;stroke-opacity:1" />
      <path
         d="m 289.10912,129.6569 -0.50508,6.18719 9.84899,-0.37881"
         id="path3923"
         style="fill:none;stroke:#000000;stroke-width:1px;stroke-linecap:butt;stroke-linejoin:miter;stroke-opacity:1" />
      <path
         d="m 285.57358,183.19499 7.19734,3.53553 17.80394,-10.22779 v -7.44988 l -6.18718,-4.16688 -18.8141,10.73287 z"
         id="path3925"
         style="fill:none;stroke:#000000;stroke-width:1px;stroke-linecap:butt;stroke-linejoin:miter;stroke-opacity:1" />
      <path
         d="m 310.57486,169.05285 -25.00128,14.14214"
         id="path3927"
         style="fill:none;stroke:#000000;stroke-width:1px;stroke-linecap:butt;stroke-linejoin:miter;stroke-opacity:1" />
      <path
         d="m 257.66812,152.5116 -1.89404,8.96511 -4.29314,1.6415 -7.19734,-3.15673 1.51523,-7.07107 4.54568,-2.77792 z"
         id="path3929"
         style="fill:none;stroke:#000000;stroke-width:1px;stroke-linecap:butt;stroke-linejoin:miter;stroke-opacity:1" />
      <path
         d="m 296.81153,222.71721 -1.76776,7.95495 -2.39912,1.76776 -8.71256,-0.63134 0.75761,-7.95495 3.53554,-2.14658 z"
         id="path3931"
         style="fill:none;stroke:#000000;stroke-width:1px;stroke-linecap:butt;stroke-linejoin:miter;stroke-opacity:1" />
      <path
         d="m 255.39528,207.56492 -4.67196,10.10152 -28.158,15.90991 -9.84899,-0.12627 0.25254,-5.93465 h -2.39911 v -2.14657 l -1.76777,-0.12627 -0.37881,-4.79823 H 205.519 l 3.53553,-9.97525 29.16815,-16.16244 9.59645,2.14657 -3.40926,9.97526 z"
         id="path3933"
         style="fill:none;stroke:#000000;stroke-width:1px;stroke-linecap:butt;stroke-linejoin:miter;stroke-opacity:1" />
      <path
         d="m 244.40987,206.4285 -33.84011,18.94036"
         id="path3935"
         style="fill:none;stroke:#000000;stroke-width:1px;stroke-linecap:butt;stroke-linejoin:miter;stroke-opacity:1" />
      <path
         d="m 149.7712,295.44819 v -5.17703 l 47.66657,-25.75889 0.50508,-2.77792 4.04061,-2.02031 7.70241,2.14658"
         id="path3937"
         style="fill:none;stroke:#000000;stroke-width:1px;stroke-linecap:butt;stroke-linejoin:miter;stroke-opacity:1" />
      <path
         d="m 208.80199,225.24259 -69.06918,39.77475 -1.13642,-1.89403 z"
         id="path3939"
         style="fill:none;stroke:#000000;stroke-width:1px;stroke-linecap:butt;stroke-linejoin:miter;stroke-opacity:1" />
      <path
         d="m 140,231.24996 -6.25,16.96429 16.42857,4.28571"
         id="path3941"
         style="fill:none;stroke:#000000;stroke-width:1px;stroke-linecap:butt;stroke-linejoin:miter;stroke-opacity:1" />
      <path
         d="m 166.96428,280.89282 -18.03571,-1.78571 6.25,-19.10715"
         id="path3943"
         style="fill:none;stroke:#000000;stroke-width:1px;stroke-linecap:butt;stroke-linejoin:miter;stroke-opacity:1" />
      <path
         d="m 143.75,229.46425 -5,16.78571 15.17857,3.75 -19.64286,12.5 4.31068,0.62335"
         id="path3945"
         style="fill:none;stroke:#000000;stroke-width:1px;stroke-linecap:butt;stroke-linejoin:miter;stroke-opacity:1" />
      <path
         d="m 139.73281,265.01734 -0.26853,4.08977 L 160,257.49996 l -6.25,18.21429 17.14286,3.03571"
         id="path3947"
         style="fill:none;stroke:#000000;stroke-width:1px;stroke-linecap:butt;stroke-linejoin:miter;stroke-opacity:1" />
      <path
         d="m 153.75,275.71425 21.07143,-12.14286 v -6.42857 l -4.28572,-0.89286 v -5.53571 l -5.71428,-0.53572"
         id="path3949"
         style="fill:none;stroke:#000000;stroke-width:1px;stroke-linecap:butt;stroke-linejoin:miter;stroke-opacity:1" />
      <path
         d="m 160,257.49996 4.82143,-7.32143"
         id="path3951"
         style="fill:none;stroke:#000000;stroke-width:1px;stroke-linecap:butt;stroke-linejoin:miter;stroke-opacity:1" />
      <path
         d="m 174.82143,263.57139 h 4.10714 l -0.35714,6.42857 3.39285,0.71429 -0.53571,1.60714"
         id="path3953"
         style="fill:none;stroke:#000000;stroke-width:1px;stroke-linecap:butt;stroke-linejoin:miter;stroke-opacity:1" />
      <path
         d="m 160,257.49996 5.35714,2.14286 -1.78571,5.71429 5.89285,1.25 -1.42857,4.46428 5.53572,0.71429 -1.00866,5.85857"
         id="path3955"
         style="fill:none;stroke:#000000;stroke-width:1px;stroke-linecap:butt;stroke-linejoin:miter;stroke-opacity:1" />
      <path
         d="m 170.53571,256.24996 -5.17857,3.39286"
         id="path3957"
         style="fill:none;stroke:#000000;stroke-width:1px;stroke-linecap:butt;stroke-linejoin:miter;stroke-opacity:1" />
      <path
         d="m 178.57143,269.99996 -5,1.78572"
         id="path3959"
         style="fill:none;stroke:#000000;stroke-width:1px;stroke-linecap:butt;stroke-linejoin:miter;stroke-opacity:1" />
      <path
         d="m 193.01836,196.83205 -3.53554,-8.46003 c -15.03202,12.29724 -29.89298,24.6241 -61.99811,33.96638"
         id="path3961"
         style="fill:none;stroke:#000000;stroke-width:1px;stroke-linecap:butt;stroke-linejoin:miter;stroke-opacity:1" />
      <path
         d="M 189.48282,188.37202 127.48471,222.3384"
         id="path3963"
         style="fill:none;stroke:#000000;stroke-width:1px;stroke-linecap:butt;stroke-linejoin:miter;stroke-opacity:1" />
      <path
         d="m 126.22202,229.03066 20.70813,-10.6066 0.50507,-3.03046"
         id="path3965"
         style="fill:none;stroke:#000000;stroke-width:1px;stroke-linecap:butt;stroke-linejoin:miter;stroke-opacity:1" />
      <path
         d="m 148.44538,210.59538 8.46002,-50.88644"
         id="path3967"
         style="fill:none;stroke:#000000;stroke-width:1px;stroke-linecap:butt;stroke-linejoin:miter;stroke-opacity:1" />
      <path
         d="m 145.22552,212.55255 9.65958,-52.78048"
         id="path3969"
         style="fill:none;stroke:#000000;stroke-width:1px;stroke-linecap:butt;stroke-linejoin:miter;stroke-opacity:1" />
      <path
         d="m 360.57741,130.79333 3.15673,4.67195 -6.43973,4.16688 -3.15672,-4.41942 z"
         id="path3971"
         style="fill:#000000;fill-opacity:1;stroke:#000000;stroke-width:1px;stroke-linecap:butt;stroke-linejoin:miter;stroke-opacity:1" />
      <path
         d="m 365.50191,139.00081 3.53553,4.79823 -6.31346,4.04061 -3.28299,-5.17704 z"
         id="path3973"
         style="fill:#000000;fill-opacity:1;stroke:#000000;stroke-width:1px;stroke-linecap:butt;stroke-linejoin:miter;stroke-opacity:1" />
      <path
         d="m 389.68243,97.584563 -4.35628,3.661797 -6.7554,-1.894027 4.10375,-3.78808"
         id="path3975"
         style="fill:#000000;fill-opacity:1;stroke:#000000;stroke-width:1px;stroke-linecap:butt;stroke-linejoin:miter;stroke-opacity:1" />
      <path
         d="m 379.77031,94.932913 -3.78807,3.40926 -4.35628,-1.51523 3.34613,-3.28299"
         id="path3977"
         style="fill:#000000;fill-opacity:1;stroke:#000000;stroke-width:1px;stroke-linecap:butt;stroke-linejoin:miter;stroke-opacity:1" />
      <path
         d="m 169.53231,215.26733 2.07483,0.35763 5.13393,-2.76786 -0.13393,-5.71428"
         id="path3989"
         style="fill:none;stroke:#000000;stroke-width:1px;stroke-linecap:butt;stroke-linejoin:miter;stroke-opacity:1" />
      <path
         d="m 292.32143,166.96425 -3.92858,-1.07143 1.42858,-4.64285 -3.03572,-0.35715 1.42857,-4.64285 -4.64285,-0.35715 1.25,-4.64285 -13.39286,6.96428 -0.35714,5.53572 3.03571,0.17857 v 4.64286 l 2.85714,0.17857 0.35715,5 6.07142,-0.35715 z"
         id="path3104"
         style="fill:none;stroke:#000000;stroke-width:1px;stroke-linecap:butt;stroke-linejoin:miter;stroke-opacity:1" />
      <path
         d="m 286.60714,170.89282 -4.10714,-0.17857 1.33928,-4.82143 -4.19643,-0.35714 0.98215,-4.91071 -3.92857,-0.53572 -0.26786,-4.82143"
         id="path3106"
         style="fill:none;stroke:#000000;stroke-width:1px;stroke-linecap:butt;stroke-linejoin:miter;stroke-opacity:1" />
      <path
         d="m 311.96428,201.07139 -10.53571,6.96429 -5.625,-1.60714 -0.35714,-4.82143 -2.85715,-0.0893 0.0893,-4.01785 -3.83929,-1.33929 12.94643,-10.44643 0.98214,5.08929 3.30358,0.26785 -0.44643,4.19643 3.57143,0.17857 -0.89286,4.375 z"
         id="path3108"
         style="fill:none;stroke:#000000;stroke-width:1px;stroke-linecap:butt;stroke-linejoin:miter;stroke-opacity:1" />
      <path
         d="m 306.60714,204.82139 -4.19643,-1.33928 0.53572,-3.83929 -4.01786,-0.89285 0.53571,-3.75 -3.03571,-0.80358 0.625,-4.64285"
         id="path3110"
         style="fill:none;stroke:#000000;stroke-width:1px;stroke-linecap:butt;stroke-linejoin:miter;stroke-opacity:1" />
    </g>
  </g>
</svg>
